<svg width="22" height="16" viewBox="0 0 22 16" fill="none" xmlns="http://www.w3.org/2000/svg">
<path fill-rule="evenodd" clip-rule="evenodd" d="M21.0067 1.89488C20.2338 2.21686 19.4028 2.43185 18.5319 2.52985C19.4218 2.02988 20.1048 1.23792 20.4268 0.295982C19.5928 0.757954 18.6709 1.09393 17.6889 1.27592C16.904 0.48997 15.783 0 14.5441 0C12.1643 0 10.2334 1.80889 10.2334 4.03875C10.2334 4.35573 10.2714 4.66472 10.3454 4.9597C6.76359 4.79071 3.58778 3.18281 1.46191 0.739955C1.09093 1.33692 0.878946 2.02988 0.878946 2.77083C0.878946 4.17075 1.6399 5.40867 2.79583 6.13263C2.08987 6.11063 1.42591 5.92964 0.843948 5.62666C0.843948 5.64466 0.843948 5.65965 0.843948 5.67865C0.843948 7.63553 2.32886 9.26743 4.30074 9.63841C3.93976 9.73041 3.55778 9.7784 3.16581 9.7784C2.88782 9.7784 2.61784 9.7544 2.35486 9.70841C2.90282 11.3113 4.49473 12.4802 6.38061 12.5132C4.9057 13.5962 3.04781 14.2411 1.02794 14.2411C0.679959 14.2411 0.336979 14.2221 0 14.1851C1.90688 15.3301 4.17275 16 6.6066 16C14.5341 16 18.8688 9.8444 18.8688 4.50772C18.8688 4.33174 18.8638 4.15875 18.8558 3.98476C19.6978 3.41479 20.4288 2.70383 21.0067 1.89488Z" fill="white"/>
</svg>
