<svg width="20" height="19" viewBox="0 0 20 19" fill="none" xmlns="http://www.w3.org/2000/svg">
<path fill-rule="evenodd" clip-rule="evenodd" d="M20 13.5204V9.26802V0H2.22222L0 2.39878V15.0469H5.55556V18.9722H8L10.6667 16.1372H17.3333L20 13.5204ZM6.8888 13.3024H3.33324C3.0888 13.3024 2.8888 13.1061 2.8888 12.8663V2.18079C2.8888 1.94092 3.0888 1.74465 3.33324 1.74465H17.5555C17.7999 1.74465 17.9999 1.94092 17.9999 2.18079V10.4675C17.9999 10.5874 17.9555 10.6965 17.8721 10.7782L15.4277 13.177C15.3444 13.2588 15.2277 13.3024 15.111 13.3024H11.0277L7.58325 15.6249C7.51102 15.6739 7.42213 15.7012 7.33325 15.7012C7.26102 15.7012 7.19436 15.6848 7.12769 15.6521C6.97769 15.5758 6.8888 15.4286 6.8888 15.265V13.3024Z" fill="white"/>
<path d="M13.5555 9.48624V5.12482H11.7777V9.48624H13.5555ZM9.11108 9.48624V5.12482H7.3333V9.48624H9.11108Z" fill="white"/>
</svg>
