<svg width="31" height="31" viewBox="0 0 31 31" fill="none" xmlns="http://www.w3.org/2000/svg">
<path d="M10.244 2.73799C11.8787 3.37902 13.459 4.22566 14.9485 5.25977C15.118 5.37468 15.3117 5.43515 15.5055 5.43515C15.6992 5.43515 15.893 5.37468 16.0625 5.25977C17.552 4.22566 19.1322 3.37297 20.767 2.73194C21.1363 2.5868 21.3846 2.22395 21.3785 1.82482C21.3785 1.42569 21.1303 1.06889 20.7549 0.929796C17.4854 -0.309932 13.5256 -0.309932 10.2621 0.929796C9.89281 1.06889 9.63852 1.43174 9.63852 1.82482C9.63852 2.2179 9.86859 2.59285 10.244 2.73799Z" fill="#FFB548"/>
<path d="M24.2854 2.74348C23.9766 2.53181 23.583 2.51367 23.25 2.70114C21.4396 3.7413 19.6898 4.93265 18.0369 6.24495C17.8189 6.42033 17.6857 6.68037 17.6736 6.95855C17.6615 7.23673 17.7705 7.50887 17.9703 7.70239C21.3973 10.962 26.1441 20.9584 27.234 25.5545C24.8727 21.5632 19.6051 12.1715 16.16 8.96026C15.7906 8.61555 15.2094 8.61555 14.84 8.96026C11.3889 12.1715 6.13945 21.5692 3.77813 25.5666C4.86797 20.9705 9.60273 10.962 13.0297 7.70239C13.2355 7.50887 13.3445 7.23673 13.3324 6.95855C13.3203 6.68037 13.1871 6.42033 12.9691 6.24495C11.3162 4.93265 9.56035 3.7413 7.75606 2.70114C7.43516 2.51367 7.02949 2.53181 6.7207 2.74348C2.5127 5.64021 0 10.3996 0 15.4794C0 19.1925 1.33809 22.7726 3.77813 25.5666C6.69648 28.9894 10.965 30.9609 15.5 30.9609C20.035 30.9609 24.3096 28.9955 27.234 25.5605C29.6619 22.7787 31 19.1986 31 15.4794C31 10.3996 28.4873 5.64021 24.2854 2.74348Z" fill="#FFB548"/>
</svg>
